<?xml version="1.0" standalone="no"?>
<!DOCTYPE svg PUBLIC "-//W3C//DTD SVG 20010904//EN" "http://www.w3.org/TR/2001/REC-SVG-20010904/DTD/svg10.dtd">
<!-- Created using Krita: https://krita.org -->
<svg xmlns="http://www.w3.org/2000/svg" 
    xmlns:xlink="http://www.w3.org/1999/xlink"
    xmlns:krita="http://krita.org/namespaces/svg/krita"
    xmlns:sodipodi="http://sodipodi.sourceforge.net/DTD/sodipodi-0.dtd"
    width="67.2pt"
    height="81.6pt"
    viewBox="0 0 67.2 81.6">
<defs/>
<path id="shape1" transform="matrix(-0.529536232506884 0.848287379479598 0.848287379479598 0.529536232506884 10.2949454536387 28.7974633633389)" fill="none" stroke="#1e74fd" stroke-width="3.84" stroke-linecap="round" stroke-linejoin="miter" stroke-miterlimit="1.91999995708466" d="M0 0L0 20.4" sodipodi:nodetypes="cc"/><path id="shape11" transform="matrix(0.529536234074994 0.848287381991623 -0.848287381991623 0.529536234074994 56.1910251006898 28.1952853551337)" fill="none" stroke="#1e74fd" stroke-width="3.84" stroke-linecap="round" stroke-linejoin="miter" stroke-miterlimit="1.91999995708466" d="M0 0L0 21.6" sodipodi:nodetypes="cc"/><circle id="shape04" transform="matrix(0.999999962297361 0 0 0.999999962297361 2.88000581906779 22.0800025877946)" r="3.60000042915349" cx="3.60000042915349" cy="3.60000042915349" fill="none" stroke="#1e74fd" stroke-width="3.84" stroke-linecap="square" stroke-linejoin="bevel"/><circle id="shape06" transform="matrix(1.00000001630381 0 0 1.00000001630381 29.2800091763399 38.8800031078867)" r="3.60000021457673" cx="3.60000021457673" cy="3.60000021457673" fill="none" stroke="#1e74fd" stroke-width="3.84" stroke-linecap="square" stroke-linejoin="bevel"/><circle id="shape07" transform="matrix(0.99999998955964 0 0 0.99999998955964 56.8800117795609 20.8800023673549)" r="3.60000042915349" cx="3.60000042915349" cy="3.60000042915349" fill="none" stroke="#1e74fd" stroke-width="3.84" stroke-linecap="square" stroke-linejoin="bevel"/><circle id="shape08" transform="matrix(0.999999950438808 0 0 0.999999950438808 29.280008823759 71.2800079974012)" r="3.60000042915349" cx="3.60000042915349" cy="3.60000042915349" fill="none" stroke="#1e74fd" stroke-width="3.84" stroke-linecap="square" stroke-linejoin="bevel"/><path id="shape12" transform="matrix(0.999902673577626 -0.0139545406724014 0.0139545406724014 0.999902673577626 32.6400094303775 47.2800037658169)" fill="none" stroke="#1e74fd" stroke-width="3.84" stroke-linecap="round" stroke-linejoin="miter" stroke-miterlimit="1.91999995708466" d="M0 0L0 21.6" sodipodi:nodetypes="cc"/><path id="shape121" transform="matrix(0.999902685745938 0.0139545408422212 0.0139545408422212 -0.999902685745938 32.7460454824069 12.4790661062881)" fill="#dfc3c3" stroke="#1e74fd" stroke-width="3.84" stroke-linecap="round" stroke-linejoin="miter" stroke-miterlimit="1.91999995708466" d="M0 0L0 9.6" sodipodi:nodetypes="cc"/><path id="shape111" transform="matrix(-0.529536238951071 -0.848287389802823 0.848287389802823 -0.529536238951071 14.8800074253593 30.480002955869)" fill="none" stroke="#1e74fd" stroke-width="3.84" stroke-linecap="round" stroke-linejoin="miter" stroke-miterlimit="1.91999995708466" d="M0 0L0 16.8" sodipodi:nodetypes="cc"/><path id="shape1111" transform="matrix(0.529536240519181 -0.848287392314849 -0.848287392314849 -0.529536240519181 52.0056245163008 30.3681073285071)" fill="none" stroke="#1e74fd" stroke-width="3.84" stroke-linecap="round" stroke-linejoin="miter" stroke-miterlimit="1.91999995708466" d="M0 0L0 16.8" sodipodi:nodetypes="cc"/><circle id="shape061" transform="matrix(1.0000000284733 0 0 -1.0000000284733 29.2800087574115 22.0800023904809)" r="3.60000021457673" cx="3.60000021457673" cy="3.60000021457673" fill="none" stroke="#1e74fd" stroke-width="3.84" stroke-linecap="square" stroke-linejoin="bevel"/><path id="shape1211" transform="matrix(0.999902714326109 0.0139545412410831 0.0139545412410831 -0.999902714326109 14.6455711325091 47.2783685565475)" fill="none" stroke="#1e74fd" stroke-width="3.84" stroke-linecap="round" stroke-linejoin="miter" stroke-miterlimit="1.91999995708466" d="M0 0L0 16.8" sodipodi:nodetypes="cc"/><path id="shape122" transform="matrix(0.999902692485464 0.0139545409362773 0.0139545409362773 -0.999902692485464 53.0455748750463 47.2783681896247)" fill="none" stroke="#1e74fd" stroke-width="3.84" stroke-linecap="round" stroke-linejoin="miter" stroke-miterlimit="1.91999995708466" d="M0 0L0 16.8" sodipodi:nodetypes="cc"/><circle id="shape0611" transform="matrix(1.00000002260604 0 0 -1.00000002260604 49.6800108668172 55.6800054085485)" r="3.60000021457673" cx="3.60000021457673" cy="3.60000021457673" fill="none" stroke="#1e74fd" stroke-width="3.84" stroke-linecap="square" stroke-linejoin="bevel"/><circle id="shape062" transform="matrix(0.999999985157385 0 0 -0.999999985157385 11.2800072642161 55.6800054085484)" r="3.60000021457673" cx="3.60000021457673" cy="3.60000021457673" fill="none" stroke="#1e74fd" stroke-width="3.84" stroke-linecap="square" stroke-linejoin="bevel"/><path id="shape112" transform="matrix(-0.529536225533433 -0.848287368308519 0.848287368308519 -0.529536225533433 34.0800092940675 65.2800063429026)" fill="none" stroke="#1e74fd" stroke-width="3.84" stroke-linecap="round" stroke-linejoin="miter" stroke-miterlimit="1.91999995708466" d="M0 0L0 18" sodipodi:nodetypes="cc"/><path id="shape11111" transform="matrix(0.529536218164637 -0.84828735650412 -0.84828735650412 -0.529536218164637 34.0800092940675 65.2800063429026)" fill="none" stroke="#1e74fd" stroke-width="3.84" stroke-linecap="round" stroke-linejoin="miter" stroke-miterlimit="1.91999995708466" d="M0 0L0 18" sodipodi:nodetypes="cc"/><path id="shape1221" transform="matrix(0.524116938969467 0.851646333195304 0.851646333195304 -0.524116938969467 2.88000570858261 59.5200066779645)" fill="#dfc3c3" stroke="#1e74fd" stroke-width="3.84" stroke-linecap="round" stroke-linejoin="miter" stroke-miterlimit="1.91999995708466" d="M0 0L0 9.6" sodipodi:nodetypes="cc"/><path id="shape123" transform="matrix(0.524116922744324 -0.851646306830798 0.851646306830798 0.524116922744324 56.4000117133654 54.4800061124918)" fill="#ffffff" stroke="#1e74fd" stroke-width="3.84" stroke-linecap="round" stroke-linejoin="miter" stroke-miterlimit="1.91999995708466" d="M0 0L0 9.6" sodipodi:nodetypes="cc"/>
</svg>
